<svg width="60" height="59" viewBox="0 0 60 59" fill="none" xmlns="http://www.w3.org/2000/svg">
<rect x="0.786133" y="0.357178" width="58.2857" height="58.2857" rx="12.1429" fill="url(#paint0_linear_3_1548)"/>
<path d="M40.8876 19.404C38.8439 18.4478 36.6587 17.7529 34.3741 17.3572C34.0936 17.8644 33.7658 18.5467 33.5398 19.0895C31.1112 18.7242 28.705 18.7242 26.3211 19.0895C26.0952 18.5467 25.7599 17.8644 25.4769 17.3572C23.1898 17.7529 21.0021 18.4503 18.9585 19.409C14.8363 25.6381 13.7189 31.7124 14.2776 37.7005C17.0116 39.7422 19.6612 40.9824 22.2661 41.794C22.9092 40.9089 23.4828 39.9679 23.977 38.9762C23.0358 38.6186 22.1345 38.1773 21.2827 37.665C21.5087 37.4976 21.7297 37.3226 21.9433 37.1425C27.1381 39.5723 32.7824 39.5723 37.9152 37.1425C38.1312 37.3226 38.3522 37.4976 38.5757 37.665C37.7215 38.1798 36.8176 38.6211 35.8765 38.9788C36.3706 39.9679 36.9418 40.9114 37.5874 41.7965C40.1948 40.9849 42.8468 39.7447 45.5808 37.7005C46.2364 30.7588 44.4609 24.7402 40.8876 19.404ZM24.6847 34.0179C23.1253 34.0179 21.8464 32.562 21.8464 30.7892C21.8464 29.0164 23.098 27.558 24.6847 27.558C26.2715 27.558 27.5503 29.0138 27.523 30.7892C27.5255 32.562 26.2715 34.0179 24.6847 34.0179ZM35.1737 34.0179C33.6143 34.0179 32.3354 32.562 32.3354 30.7892C32.3354 29.0164 33.5869 27.558 35.1737 27.558C36.7605 27.558 38.0393 29.0138 38.012 30.7892C38.012 32.562 36.7605 34.0179 35.1737 34.0179Z" fill="white"/>
<defs>
<linearGradient id="paint0_linear_3_1548" x1="29.929" y1="0.357178" x2="29.929" y2="58.6429" gradientUnits="userSpaceOnUse">
<stop stop-color="#575EFF"/>
<stop offset="1" stop-color="#FFAAAF"/>
</linearGradient>
</defs>
</svg>
