<?xml version="1.0" encoding="utf-8"?>
<!-- Generator: Adobe Illustrator 25.4.1, SVG Export Plug-In . SVG Version: 6.00 Build 0)  -->
<svg version="1.1" id="Layer_1" xmlns="http://www.w3.org/2000/svg" xmlns:xlink="http://www.w3.org/1999/xlink" x="0px" y="0px"
	 viewBox="0 0 61 53" style="enable-background:new 0 0 61 53;" xml:space="preserve">
<style type="text/css">
	.st0{fill:url(#SVGID_1_);}
	.st1{fill:url(#SVGID_00000154411315615199231060000000754048562771095471_);}
</style>
<g>
	<linearGradient id="SVGID_1_" gradientUnits="userSpaceOnUse" x1="30.5" y1="1.3365" x2="30.5" y2="19.8065">
		<stop  offset="0" style="stop-color:#00AFE8"/>
		<stop  offset="0.4134" style="stop-color:#00ADE7"/>
		<stop  offset="0.656" style="stop-color:#00A4E2"/>
		<stop  offset="0.8539" style="stop-color:#0096D9"/>
		<stop  offset="1" style="stop-color:#0086D0"/>
	</linearGradient>
	<path class="st0" d="M60.14,19.81H0.86V6.34c0-2.76,2.24-5,5-5h11.39c1.31,0,2.6,0.42,3.66,1.19l3.13,2.28
		c1.25,0.91,2.76,1.39,4.3,1.39l26.77-0.13c2.77-0.01,5.02,2.23,5.02,5V19.81z"/>
	
		<linearGradient id="SVGID_00000153694900944699551030000016155460473515280031_" gradientUnits="userSpaceOnUse" x1="30.5" y1="10.189" x2="30.5" y2="51.6635">
		<stop  offset="0" style="stop-color:#00CEFF"/>
		<stop  offset="0.4514" style="stop-color:#00CCFD"/>
		<stop  offset="0.7164" style="stop-color:#00C3F8"/>
		<stop  offset="0.9326" style="stop-color:#00B5EE"/>
		<stop  offset="1" style="stop-color:#00AFEA"/>
	</linearGradient>
	<path style="fill:url(#SVGID_00000153694900944699551030000016155460473515280031_);" d="M55.14,51.66H5.86c-2.76,0-5-2.24-5-5
		V15.19c0-2.76,2.24-5,5-5h49.28c2.76,0,5,2.24,5,5v31.47C60.14,49.42,57.9,51.66,55.14,51.66z"/>
</g>
</svg>
